<svg width="175" height="51" viewBox="0 0 175 51" fill="none" xmlns="http://www.w3.org/2000/svg">
<path d="M9.0067 0.17882C5.4249 1.71908 1.4873 6.07052 0.24368 11.5325C-1.33127 18.4531 5.22283 21.3795 5.7604 20.42C6.39312 19.2925 4.58598 18.9112 4.214 15.3205C3.73324 10.6828 5.83195 5.50071 8.47324 3.22695C8.96421 2.80451 8.94086 3.39248 8.94086 4.48004C8.94086 6.42486 8.83625 23.8836 8.83625 27.5273C8.83625 32.4576 8.63803 34.0145 8.28202 35.5529C7.92131 37.1119 7.3414 38.1654 7.78082 38.5711C8.27177 39.025 10.3679 37.9454 11.5814 36.2054C13.0366 34.1186 13.546 31.6125 13.6374 28.8909C13.7479 25.61 13.7432 20.4041 13.7479 17.4346C13.7523 14.7112 13.7926 6.73634 13.7014 1.94217C13.6791 0.766264 10.5046 -0.46744 9.00653 0.177389L9.0067 0.17882ZM136.196 23.2524C136.081 25.8155 135.529 27.819 134.843 29.2321C133.516 31.9679 130.763 32.8174 129.594 28.8846C128.956 26.7408 128.927 23.1606 129.385 20.169C129.851 17.1215 131.153 14.8199 133.309 15.0275C135.435 15.2326 136.431 18.0475 136.196 23.2522V23.2524ZM100.349 39.1548C100.32 43.4137 99.6677 47.1478 98.2686 48.2323C96.2842 49.7701 93.617 48.6166 94.1693 45.5089C94.658 42.7588 96.969 39.9503 100.355 36.5188C100.355 36.5188 100.362 37.3014 100.349 39.1548H100.349ZM99.8071 23.2276C99.6857 25.5621 99.0966 27.9073 98.4539 29.2324C97.1272 31.9682 94.3537 32.8234 93.2043 28.8849C92.4184 26.194 92.6067 22.7112 92.9955 20.5167C93.5 17.6695 94.723 15.0281 96.9195 15.0281C99.0551 15.0281 100.108 17.435 99.8071 23.2277V23.2276ZM79.0406 23.1918C78.9105 25.6643 78.4409 27.7312 77.6875 29.2324C76.3243 31.9493 73.6273 32.811 72.4379 28.8849C71.5805 26.0539 71.8724 22.1937 72.2291 20.1085C72.7584 17.0141 74.0839 14.8202 76.1531 15.0281C78.2786 15.2414 79.3119 18.0478 79.0406 23.192V23.1918ZM174.208 26.0798C173.689 26.0798 173.452 26.6301 173.255 27.5562C172.575 30.7765 171.86 31.5037 170.938 31.5037C169.907 31.5037 168.981 29.9091 168.743 26.7171C168.556 24.2071 168.587 19.5862 168.826 14.9897C168.875 14.0452 168.621 13.1108 166.155 12.1906C165.094 11.7948 163.552 11.212 162.784 13.1163C160.614 18.4962 159.765 22.7675 159.566 24.5026C159.555 24.5924 159.448 24.6108 159.429 24.401C159.302 23.0112 159.018 20.4859 158.982 15.18C158.975 14.1448 158.762 13.2636 157.65 12.5422C156.928 12.0741 154.737 11.2462 153.947 12.2311C153.264 13.0367 152.472 15.2045 151.649 17.7742C150.981 19.8628 150.515 21.2757 150.515 21.2757C150.515 21.2757 150.524 15.6403 150.532 13.5027C150.535 12.6962 149.997 12.4275 149.835 12.3788C149.104 12.1609 147.664 11.7969 147.053 11.7969C146.299 11.7969 146.114 12.2299 146.114 12.8609C146.114 12.9435 145.995 20.2804 145.995 25.4107C145.995 25.6336 145.995 25.8767 145.997 26.135C145.58 28.4929 144.228 31.6938 142.757 31.6938C141.284 31.6938 140.589 30.3556 140.589 24.2395C140.589 20.6715 140.693 19.12 140.744 16.5394C140.774 15.053 140.832 13.9116 140.828 13.6526C140.818 12.8583 139.481 12.4579 138.858 12.3099C138.233 12.1607 137.69 12.1029 137.266 12.1278C136.666 12.1626 136.241 12.5672 136.241 13.1236C136.241 13.422 136.244 13.9894 136.244 13.9894C135.471 12.7411 134.228 11.8724 133.4 11.6206C131.171 10.9407 128.846 11.5431 127.092 14.0647C125.698 16.0683 124.857 18.3375 124.527 21.5978C124.285 23.9813 124.364 26.3983 124.794 28.4423C124.274 30.7489 123.31 31.6938 122.254 31.6938C120.722 31.6938 119.611 29.1239 119.74 24.6795C119.825 21.7562 120.394 19.7047 121.017 16.7367C121.282 15.4715 121.067 14.8091 120.526 14.1743C120.03 13.5921 118.973 13.2946 117.453 13.6605C116.371 13.9213 114.824 14.2018 113.408 14.4173C113.408 14.4173 113.494 14.0671 113.564 13.4499C113.932 10.2126 110.508 10.4752 109.415 11.5092C108.763 12.1266 108.319 12.8546 108.151 14.1637C107.884 16.2411 109.533 17.2209 109.533 17.2209C108.992 19.7655 107.665 23.0896 106.296 25.4929C105.563 26.7805 105.001 27.7346 104.277 28.7489C104.275 28.3712 104.273 27.9936 104.271 27.6177C104.255 22.2679 104.324 18.0575 104.355 16.5399C104.384 15.0536 104.442 13.9424 104.439 13.6834C104.431 13.1024 104.101 12.883 103.414 12.6052C102.806 12.3595 102.088 12.1894 101.343 12.1301C100.403 12.0548 99.8367 12.5671 99.8514 13.1729C99.8543 13.2873 99.8543 13.9896 99.8543 13.9896C99.081 12.7414 97.8374 11.8726 97.01 11.6208C94.7814 10.9412 92.4559 11.5437 90.7018 14.0649C89.308 16.0685 88.3952 18.88 88.1366 21.5732C87.8956 24.0832 87.9401 26.2163 88.2685 28.0132C87.9142 29.8125 86.8953 31.694 85.7433 31.694C84.2705 31.694 83.4325 30.3558 83.4325 24.2397C83.4325 20.6717 83.5368 19.1203 83.5881 16.5399C83.6178 15.0536 83.6752 13.9118 83.672 13.6531C83.6612 12.8588 82.3241 12.4584 81.702 12.3102C81.051 12.1555 80.489 12.0986 80.0575 12.1313C79.4881 12.1749 79.0878 12.6987 79.0878 13.0894V13.9896C78.3146 12.7414 77.071 11.8726 76.2436 11.6208C74.015 10.9412 71.7025 11.5533 69.9354 14.0649C68.7831 15.7026 67.8503 17.5183 67.3702 21.5374C67.2314 22.6989 67.1701 23.7866 67.1781 24.8032C66.7186 27.6901 64.6891 31.0174 63.029 31.0174C62.0576 31.0174 61.1324 29.0817 61.1324 24.9563C61.1324 19.461 61.4634 11.6369 61.5194 10.8828C61.5194 10.8828 63.6169 10.8462 64.0231 10.8413C65.0694 10.8295 66.017 10.8549 67.4105 10.7817C68.1095 10.7451 68.7828 8.1681 68.0615 7.84917C67.7345 7.70482 65.4237 7.57834 64.5077 7.55836C63.7374 7.54043 61.5931 7.3774 61.5931 7.3774C61.5931 7.3774 61.7854 2.18411 61.8302 1.6355C61.8682 1.17826 61.2923 0.942845 60.9621 0.799996C60.1592 0.451102 59.4407 0.284055 58.5892 0.103706C57.4127 -0.145627 56.879 0.0982587 56.7747 1.11834C56.6177 2.66648 56.5364 7.20098 56.5364 7.20098C55.6731 7.20098 52.724 7.0276 51.8604 7.0276C51.058 7.0276 50.192 10.5726 51.3013 10.6162C52.5776 10.667 54.8018 10.7109 56.2763 10.7566C56.2763 10.7566 56.2107 18.7096 56.2107 21.1649C56.2107 21.4262 56.2129 21.6777 56.2133 21.9218C55.4018 26.2672 52.5434 28.6145 52.5434 28.6145C53.1573 25.7398 51.9034 23.581 49.6447 21.7536C48.8126 21.0802 47.1699 19.8053 45.3318 18.4083C45.3318 18.4083 46.3964 17.3304 47.3404 15.162C48.0094 13.6259 48.0382 11.8681 46.3964 11.4805C43.6835 10.8396 41.4467 12.8864 40.7795 15.0715C40.2626 16.7642 40.5383 18.0203 41.551 19.3252C41.6249 19.4205 41.705 19.5179 41.7878 19.616C41.1754 20.8286 40.3341 22.4611 39.6216 23.7271C37.644 27.2422 36.15 30.0225 35.021 30.0225C34.1184 30.0225 34.1305 27.1998 34.1305 24.5569C34.1305 22.2785 34.2943 18.8531 34.4251 15.3066C34.4684 14.1337 33.8975 13.4655 32.9405 12.8603C32.3591 12.4927 31.1181 11.7698 30.3994 11.7698C29.3236 11.7698 26.22 11.9201 23.2874 20.6348C22.9178 21.7333 22.1917 23.7347 22.1917 23.7347L22.2542 13.2549C22.2542 13.0092 22.1269 12.7717 21.8352 12.6092C21.341 12.3335 20.0211 11.7698 18.8475 11.7698C18.2883 11.7698 18.0093 12.037 18.0093 12.5695L17.9069 28.9652C17.9069 30.211 17.9385 31.6643 18.0584 32.2999C18.1779 32.9364 18.3714 33.4541 18.6111 33.7621C18.8504 34.0696 19.1272 34.3041 19.5837 34.4009C20.0085 34.4907 22.3347 34.7976 22.4556 33.8844C22.6004 32.7899 22.606 31.6061 23.8275 27.1911C25.7291 20.3174 28.2084 16.9636 29.3739 15.7726C29.5777 15.5644 29.8104 15.552 29.7992 15.8927C29.7494 17.3997 29.5745 21.1653 29.4567 24.3644C29.1409 32.9257 30.657 34.5126 32.8234 34.5126C34.4809 34.5126 36.8173 32.8207 39.3219 28.538C40.8833 25.869 42.3994 23.2521 43.4887 21.3659C44.2478 22.0878 45.0996 22.8648 45.9509 23.6948C47.9291 25.6237 48.5786 27.4565 48.1477 29.1952C47.818 30.5244 46.5768 31.8943 44.3676 30.5629C43.7237 30.1744 43.4489 29.8743 42.8015 29.4364C42.4536 29.2011 41.9225 29.1308 41.6041 29.3773C40.777 30.0179 40.304 30.8328 40.0339 31.8417C39.7711 32.8234 40.7281 33.3423 41.7202 33.7962C42.5744 34.1869 44.4103 34.5409 45.5812 34.5812C50.1433 34.738 53.7978 32.3183 56.3419 26.0768C56.7973 31.4671 58.7354 34.5174 62.1028 34.5174C64.3541 34.5174 66.6112 31.5279 67.5983 28.5869C67.8817 29.7858 68.3011 30.8282 68.8428 31.7098C71.4375 35.9333 76.4712 35.0242 78.9996 31.4378C79.7814 30.3297 79.9004 29.9314 79.9004 29.9314C80.2691 33.3179 82.9237 34.5011 84.4436 34.5011C86.1458 34.5011 87.9034 33.6743 89.1352 30.8253C89.2796 31.1345 89.4372 31.4298 89.6092 31.7097C92.2039 35.9332 97.2376 35.0241 99.766 31.4377C99.8853 31.2695 99.9887 31.1169 100.079 30.9799L100.153 33.2043C100.153 33.2043 98.7109 34.5637 97.8255 35.3976C93.9285 39.0706 90.9653 41.8573 90.7474 45.1024C90.4675 49.2402 93.7341 50.778 96.2055 50.9796C98.8299 51.1935 101.077 49.7041 102.459 47.6197C103.674 45.7851 104.469 41.8364 104.411 37.9364C104.388 36.3747 104.349 34.389 104.319 32.2605C105.689 30.6264 107.232 28.5612 108.653 26.1437C110.202 23.5091 111.861 19.9711 112.711 17.2177C112.711 17.2177 114.153 17.2305 115.691 17.127C116.184 17.094 116.325 17.1972 116.234 17.5679C116.124 18.0157 114.29 25.2837 115.964 30.1253C117.11 33.4397 119.693 34.5061 121.224 34.5061C123.017 34.5061 124.732 33.1153 125.651 31.0501C125.761 31.2803 125.877 31.5031 126.003 31.7088C128.598 35.9323 133.614 35.0178 136.16 31.4368C136.735 30.6289 137.061 29.9304 137.061 29.9304C137.607 33.4352 140.261 34.5179 141.78 34.5179C143.363 34.5179 144.865 33.8512 146.084 30.8885C146.135 32.193 146.215 33.2597 146.342 33.596C146.419 33.8016 146.869 34.0598 147.196 34.1845C148.644 34.7361 150.121 34.4753 150.667 34.3618C151.046 34.2831 151.341 33.9711 151.381 33.1656C151.487 31.0504 151.422 27.4966 152.047 24.8555C153.094 20.4229 154.072 18.7035 154.535 17.8523C154.795 17.3754 155.088 17.2967 155.098 17.8015C155.12 18.8228 155.169 21.8219 155.575 25.8513C155.873 28.8149 156.272 30.5665 156.578 31.1209C157.451 32.7062 158.53 32.7813 159.408 32.7813C159.967 32.7813 161.135 32.6227 161.031 31.6138C160.98 31.1221 161.069 28.083 162.102 23.7161C162.777 20.8644 163.901 18.2877 164.307 17.3457C164.456 16.9983 164.526 17.2722 164.524 17.3255C164.438 19.2894 164.246 25.7131 165.025 29.2263C166.081 33.9857 169.135 34.5183 170.199 34.5183C172.471 34.5183 174.329 32.7428 174.955 28.0713C175.106 26.9471 174.883 26.079 174.214 26.079" fill="#262626"/>
</svg>
