<svg width="13" height="8" viewBox="0 0 13 8" fill="none" xmlns="http://www.w3.org/2000/svg">
<path d="M0.246494 1.44045L6.09054 7.40045L11.9346 1.44045C12.0934 1.27801 12.1801 1.06005 12.1759 0.834542C12.1716 0.60903 12.0766 0.39443 11.9118 0.237952C11.7469 0.0814743 11.5258 -0.00406313 11.297 0.000156403C11.0682 0.00437593 10.8505 0.0980072 10.6917 0.260452L6.09054 4.95545L1.4843 0.260452C1.32554 0.0980072 1.1078 0.00437593 0.879001 0.000156403C0.650198 -0.00406313 0.429065 0.0814743 0.264249 0.237952C0.0994339 0.39443 0.00443649 0.60903 0.000155449 0.834542C-0.0041256 1.06005 0.0826597 1.27801 0.241421 1.44045H0.246494Z" fill="#8E8E8E"/>
</svg>
